<svg xmlns="http://www.w3.org/2000/svg" id="Calque_2" viewBox="0 0 107 92.65"><defs><style>.cls-1{fill:#f78ea5;}.cls-2{fill:#d9a7ea;}.cls-3{fill:#66201e;}.cls-4{fill:#fef7f1;}.cls-5{fill:#a5adf2;}</style></defs><g id="art"><path class="cls-4" d="m55.19,8.46c-3.34.1-5.05.79-5.95,4.52-.9,3.73-8.86,56.34-9.03,65.99-.07,4.24,1.87,5.23,4.52,5.95s43.16,6.39,45.44,6.22c2.85-.21,5.16-.82,5.95-4.52,3.24-15.19,9.12-61.64,9.37-65.77.18-2.99-.5-4.86-4.85-6.18-4.35-1.32-42.75-6.3-45.44-6.22Z"/><path class="cls-3" d="m90.08,92.65c-4.1,0-43.62-5.69-45.76-6.27-2.77-.76-5.72-2.02-5.62-7.43.18-9.96,8.2-62.7,9.08-66.32,1.11-4.59,3.54-5.55,7.36-5.66l.04,1.5-.04-1.5s.06,0,.09,0c3.6,0,41.62,5.01,45.83,6.28,5.19,1.57,6.12,4.21,5.91,7.7-.27,4.57-6.22,51.07-9.4,65.99-.98,4.61-4.09,5.46-7.31,5.7-.05,0-.11,0-.19,0ZM55.3,9.96s-.05,0-.07,0c-2.95.09-3.85.52-4.54,3.38-.84,3.48-8.82,56.24-8.99,65.67-.06,3.2,1,3.82,3.42,4.48,2.85.78,42.77,6.22,44.95,6.17,2.77-.2,4.03-.71,4.59-3.34,3.16-14.83,9.07-61.01,9.34-65.54.13-2.2.02-3.5-3.79-4.66-4.05-1.22-41.8-6.16-44.9-6.16Z"/><path class="cls-5" d="m55.92,18.78c-1.89,11.55-6.65,43.66-7.84,56.36-.14,1.49.91,2.84,2.39,3.07,8.41,1.31,27.48,3.97,35.9,4.96,1.49.17,2.85-.83,3.12-2.31,2.74-15.03,6.68-45.28,7.97-56.42.18-1.51-.86-2.88-2.35-3.13-8.13-1.37-27.47-3.95-36.08-4.9-1.5-.17-2.87.87-3.11,2.36Z"/><path class="cls-3" d="m86.7,84.69c-.17,0-.34,0-.51-.03-8.35-.98-27.33-3.63-35.96-4.97-2.26-.35-3.87-2.41-3.65-4.69,1.23-13.11,6.07-45.52,7.86-56.46h0c.37-2.28,2.46-3.86,4.75-3.61,8.61.95,28.06,3.55,36.17,4.91,2.28.38,3.86,2.48,3.59,4.78-1.2,10.32-5.2,41.24-7.99,56.51-.38,2.08-2.2,3.56-4.27,3.56ZM57.4,19.02c-1.79,10.91-6.61,43.22-7.83,56.26-.07.7.43,1.34,1.13,1.45,8.6,1.34,27.53,3.98,35.85,4.96.71.1,1.35-.4,1.48-1.09,2.77-15.21,6.76-46.03,7.96-56.32.08-.71-.41-1.36-1.11-1.48-8.06-1.36-27.43-3.95-36-4.89-.71-.08-1.35.41-1.47,1.12h0Z"/><path class="cls-4" d="m30.69,5.79c-3.3.56-4.9,1.47-5.28,5.29-.38,3.82-1.06,57.02.1,66.61.51,4.21,2.57,4.93,5.29,5.28,2.72.35,43.62.41,45.86-.07,2.79-.6,5-1.52,5.28-5.29,1.13-15.5.59-62.31.27-66.43-.23-2.98-1.16-4.75-5.65-5.45-4.49-.71-43.21-.38-45.86.07Z"/><path class="cls-3" d="m56.07,84.75c-11.75,0-24.26-.14-25.46-.29-2.85-.37-5.94-1.21-6.59-6.58-1.19-9.9-.47-63.23-.1-66.94.47-4.69,2.75-5.98,6.52-6.62h0c2.97-.5,41.97-.76,46.34-.07,5.36.85,6.64,3.34,6.91,6.82.36,4.56.84,51.44-.26,66.66-.34,4.7-3.31,5.97-6.46,6.65-1.3.28-10.82.38-20.91.38ZM30.94,7.27c-2.91.49-3.74,1.04-4.04,3.97-.36,3.56-1.04,56.91.09,66.28.38,3.18,1.51,3.65,4,3.97,2.93.38,43.21.34,45.37-.05,2.72-.58,3.89-1.26,4.09-3.94,1.1-15.13.62-61.68.27-66.21-.17-2.2-.46-3.47-4.4-4.09-4.2-.66-42.84-.37-45.38.06h0Z"/><path class="cls-2" d="m32.82,15.91c-.29,11.7-.61,44.16-.05,56.91.07,1.5,1.29,2.69,2.79,2.71,8.51.14,27.77.17,36.24,0,1.5-.03,2.71-1.22,2.78-2.71.65-15.26.41-45.77.16-56.98-.03-1.52-1.24-2.73-2.76-2.78-8.24-.24-27.76-.15-36.41.09-1.51.04-2.72,1.26-2.76,2.77Z"/><path class="cls-3" d="m54.43,77.14c-7.13,0-14.39-.04-18.89-.12-2.29-.04-4.16-1.86-4.26-4.14-.58-13.15-.23-45.92.05-57.01h0c.06-2.31,1.91-4.16,4.21-4.23,8.66-.24,28.28-.33,36.5-.09,2.31.07,4.16,1.93,4.21,4.24.23,10.38.5,41.55-.16,57.08-.1,2.28-1.96,4.1-4.24,4.15-4.07.08-10.69.12-17.41.12Zm3.31-62.73c-8.12,0-17.02.09-22.12.23-.71.02-1.29.59-1.3,1.31h0c-.27,11.06-.62,43.73-.05,56.8.03.7.61,1.27,1.32,1.28,8.71.15,27.83.17,36.19,0,.71-.01,1.28-.58,1.31-1.28.66-15.46.39-46.53.16-56.88-.01-.71-.59-1.29-1.31-1.31-3.34-.1-8.59-.14-14.21-.14Zm-24.91,1.5h0,0Z"/><path class="cls-4" d="m6.07,7.32c-3.2.97-4.67,2.07-4.57,5.91.1,3.84,6.1,56.7,8.45,66.07,1.03,4.11,3.17,4.56,5.91,4.57s43.33-5.06,45.49-5.82c2.7-.94,4.77-2.13,4.57-5.91-.83-15.51-7.23-61.89-8.07-65.94-.61-2.93-1.75-4.56-6.29-4.7-4.55-.14-42.91,5.04-45.49,5.82Z"/><path class="cls-3" d="m15.86,85.37h0c-2.87,0-6.05-.46-7.36-5.71C6.07,70,.1,16.99,0,13.27c-.12-4.72,1.97-6.28,5.64-7.39C8.52,5.01,47.19-.17,51.61,0c5.42.17,7.01,2.48,7.71,5.9.93,4.48,7.28,50.91,8.1,66.16.25,4.71-2.53,6.34-5.57,7.41-2.71.95-43.68,5.9-45.99,5.9ZM51.34,2.99c-5.03,0-42.4,5.02-44.84,5.76h0c-2.83.85-3.59,1.5-3.51,4.44.09,3.58,6.11,56.6,8.4,65.74.78,3.1,1.96,3.43,4.47,3.44h0c3.02,0,42.9-5.08,45-5.74,2.62-.92,3.7-1.74,3.56-4.42-.81-15.16-7.12-61.27-8.04-65.72-.45-2.16-.89-3.39-4.87-3.51-.05,0-.11,0-.18,0ZM6.07,7.32h0,0Z"/><path class="cls-1" d="m9.46,17.09c1.18,11.65,4.94,43.89,7.09,56.46.25,1.48,1.61,2.5,3.11,2.34,8.46-.93,27.57-3.31,35.96-4.55,1.48-.22,2.54-1.55,2.42-3.04-1.27-15.22-5.34-45.46-6.98-56.55-.22-1.5-1.58-2.55-3.09-2.41-8.21.79-27.56,3.33-36.11,4.66-1.49.23-2.54,1.59-2.39,3.09Z"/><path class="cls-3" d="m19.35,77.41c-2.08,0-3.91-1.5-4.27-3.6-2.22-12.99-5.99-45.54-7.1-56.56h0c-.23-2.29,1.37-4.37,3.65-4.72,8.56-1.33,28.02-3.88,36.2-4.67,2.29-.23,4.37,1.39,4.71,3.68,1.75,11.81,5.73,41.51,6.99,56.65.19,2.27-1.43,4.31-3.69,4.65-8.29,1.22-27.31,3.6-36.01,4.56-.16.02-.32.03-.47.03ZM10.95,16.94c1.11,11,4.86,43.44,7.08,56.36.12.69.76,1.18,1.47,1.1,8.67-.95,27.64-3.32,35.9-4.54.7-.1,1.2-.73,1.14-1.44-1.28-15.37-5.45-46.19-6.97-56.45-.11-.71-.75-1.2-1.46-1.14-8.13.79-27.5,3.32-36.03,4.65-.7.11-1.2.75-1.13,1.46h0Z"/></g></svg>